<svg width="302" height="48" viewBox="0 0 302 48" fill="none" xmlns="http://www.w3.org/2000/svg">
<path d="M0.384 47L19.456 1.88H31.424L50.496 47H37.184L33.92 39H16.64L13.44 47H0.384ZM20.288 29.336H30.336L25.344 16.6L20.288 29.336ZM76.859 47.768C72.6777 47.768 69.1577 46.104 66.299 42.776V47H54.139V0.279999H66.299V16.984C69.243 13.4 72.7417 11.608 76.795 11.608C81.0617 11.608 84.6883 13.2507 87.675 16.536C90.6617 19.8213 92.155 24.152 92.155 29.528V29.656C92.155 35.1173 90.6617 39.512 87.675 42.84C84.731 46.1253 81.1257 47.768 76.859 47.768ZM73.083 37.592C75.0883 37.592 76.7737 36.8667 78.139 35.416C79.5043 33.9227 80.187 32.024 80.187 29.72V29.592C80.187 27.3307 79.5043 25.4747 78.139 24.024C76.7737 22.5307 75.0883 21.784 73.083 21.784C71.1203 21.784 69.4563 22.5307 68.091 24.024C66.7257 25.4747 66.043 27.3307 66.043 29.592V29.72C66.043 31.9813 66.7257 33.8587 68.091 35.352C69.4563 36.8453 71.1203 37.592 73.083 37.592ZM115.053 47.832C109.592 47.832 105.048 46.0827 101.421 42.584C97.7943 39.0853 95.981 34.84 95.981 29.848V29.72C95.981 24.728 97.7943 20.4613 101.421 16.92C105.09 13.3787 109.677 11.608 115.181 11.608C120.642 11.608 125.186 13.3573 128.813 16.856C132.44 20.3547 134.253 24.6 134.253 29.592V29.72C134.253 34.712 132.418 38.9787 128.749 42.52C125.122 46.0613 120.557 47.832 115.053 47.832ZM115.181 37.528C117.314 37.528 119.042 36.7813 120.365 35.288C121.73 33.7947 122.413 31.9813 122.413 29.848V29.72C122.413 27.5867 121.709 25.752 120.301 24.216C118.893 22.68 117.144 21.912 115.053 21.912C112.92 21.912 111.17 22.6587 109.805 24.152C108.482 25.6453 107.821 27.4587 107.821 29.592V29.72C107.821 31.8533 108.525 33.688 109.933 35.224C111.341 36.76 113.09 37.528 115.181 37.528ZM150.909 47.768C147.24 47.768 144.36 46.6373 142.269 44.376C140.178 42.1147 139.133 39 139.133 35.032V12.376H151.293V31.128C151.293 32.9627 151.741 34.392 152.637 35.416C153.533 36.44 154.728 36.952 156.221 36.952C157.714 36.952 158.93 36.44 159.869 35.416C160.808 34.392 161.277 32.9627 161.277 31.128V12.376H173.437V47H161.277V42.264C158.418 45.9333 154.962 47.768 150.909 47.768ZM193.712 47.704C185.946 47.704 182.064 43.8853 182.064 36.248V22.168H177.968V12.376H182.064V3.608H194.224V12.376H202.288V22.168H194.224V33.88C194.224 36.184 195.333 37.336 197.552 37.336C199.002 37.336 200.538 36.952 202.16 36.184V45.72C199.813 47.0427 196.997 47.704 193.712 47.704ZM246.128 47.832C239.557 47.832 234.459 46.1253 230.832 42.712C227.205 39.2987 225.392 34.1787 225.392 27.352V2.2H238V27.096C238 30.2533 238.725 32.6427 240.176 34.264C241.669 35.8427 243.696 36.632 246.256 36.632C248.816 36.632 250.821 35.864 252.272 34.328C253.765 32.792 254.512 30.488 254.512 27.416V2.2H267.12V27.032C267.12 34.0293 265.264 39.256 261.552 42.712C257.883 46.1253 252.741 47.832 246.128 47.832ZM287.524 47.768C281.337 47.768 275.876 46.0613 271.14 42.648L275.684 35.288C279.695 37.9333 283.663 39.256 287.588 39.256C289.636 39.256 290.66 38.6373 290.66 37.4V37.272C290.66 36.6747 290.255 36.184 289.444 35.8C288.633 35.416 287.183 34.9253 285.092 34.328C283.129 33.816 281.487 33.304 280.164 32.792C278.884 32.28 277.625 31.6187 276.388 30.808C275.193 29.9547 274.297 28.9093 273.7 27.672C273.103 26.392 272.804 24.92 272.804 23.256V23.128C272.804 19.544 274.084 16.7493 276.644 14.744C279.247 12.696 282.596 11.672 286.692 11.672C292.025 11.672 296.783 13.016 300.964 15.704L296.804 23.384C292.964 21.2507 289.551 20.184 286.564 20.184C284.687 20.184 283.748 20.7387 283.748 21.848V21.976C283.748 22.5733 284.153 23.0853 284.964 23.512C285.775 23.896 287.247 24.408 289.38 25.048C293.433 26.2 296.484 27.5653 298.532 29.144C300.623 30.68 301.668 32.984 301.668 36.056V36.184C301.668 39.896 300.388 42.7547 297.828 44.76C295.268 46.7653 291.833 47.768 287.524 47.768Z" fill="#00002E"/>
</svg>
