<svg width="547" height="48" viewBox="0 0 547 48" fill="none" xmlns="http://www.w3.org/2000/svg">
<path d="M0.384 47L19.456 1.88H31.424L50.496 47H37.184L33.92 39H16.64L13.44 47H0.384ZM20.288 29.336H30.336L25.344 16.6L20.288 29.336ZM76.859 47.768C72.6777 47.768 69.1577 46.104 66.299 42.776V47H54.139V0.279999H66.299V16.984C69.243 13.4 72.7417 11.608 76.795 11.608C81.0617 11.608 84.6883 13.2507 87.675 16.536C90.6617 19.8213 92.155 24.152 92.155 29.528V29.656C92.155 35.1173 90.6617 39.512 87.675 42.84C84.731 46.1253 81.1257 47.768 76.859 47.768ZM73.083 37.592C75.0883 37.592 76.7737 36.8667 78.139 35.416C79.5043 33.9227 80.187 32.024 80.187 29.72V29.592C80.187 27.3307 79.5043 25.4747 78.139 24.024C76.7737 22.5307 75.0883 21.784 73.083 21.784C71.1203 21.784 69.4563 22.5307 68.091 24.024C66.7257 25.4747 66.043 27.3307 66.043 29.592V29.72C66.043 31.9813 66.7257 33.8587 68.091 35.352C69.4563 36.8453 71.1203 37.592 73.083 37.592ZM115.053 47.832C109.592 47.832 105.048 46.0827 101.421 42.584C97.7943 39.0853 95.981 34.84 95.981 29.848V29.72C95.981 24.728 97.7943 20.4613 101.421 16.92C105.09 13.3787 109.677 11.608 115.181 11.608C120.642 11.608 125.186 13.3573 128.813 16.856C132.44 20.3547 134.253 24.6 134.253 29.592V29.72C134.253 34.712 132.418 38.9787 128.749 42.52C125.122 46.0613 120.557 47.832 115.053 47.832ZM115.181 37.528C117.314 37.528 119.042 36.7813 120.365 35.288C121.73 33.7947 122.413 31.9813 122.413 29.848V29.72C122.413 27.5867 121.709 25.752 120.301 24.216C118.893 22.68 117.144 21.912 115.053 21.912C112.92 21.912 111.17 22.6587 109.805 24.152C108.482 25.6453 107.821 27.4587 107.821 29.592V29.72C107.821 31.8533 108.525 33.688 109.933 35.224C111.341 36.76 113.09 37.528 115.181 37.528ZM150.909 47.768C147.24 47.768 144.36 46.6373 142.269 44.376C140.178 42.1147 139.133 39 139.133 35.032V12.376H151.293V31.128C151.293 32.9627 151.741 34.392 152.637 35.416C153.533 36.44 154.728 36.952 156.221 36.952C157.714 36.952 158.93 36.44 159.869 35.416C160.808 34.392 161.277 32.9627 161.277 31.128V12.376H173.437V47H161.277V42.264C158.418 45.9333 154.962 47.768 150.909 47.768ZM193.712 47.704C185.946 47.704 182.064 43.8853 182.064 36.248V22.168H177.968V12.376H182.064V3.608H194.224V12.376H202.288V22.168H194.224V33.88C194.224 36.184 195.333 37.336 197.552 37.336C199.002 37.336 200.538 36.952 202.16 36.184V45.72C199.813 47.0427 196.997 47.704 193.712 47.704ZM236.912 47V13.08H223.472V2.2H262.768V13.08H249.328V47H236.912ZM267.514 47V0.279999H279.674V17.112C282.533 13.4427 285.989 11.608 290.042 11.608C293.711 11.608 296.591 12.76 298.682 15.064C300.773 17.3253 301.818 20.4187 301.818 24.344V47H289.658V28.248C289.658 26.4133 289.21 24.984 288.314 23.96C287.461 22.936 286.287 22.424 284.794 22.424C283.258 22.424 282.021 22.936 281.082 23.96C280.143 24.984 279.674 26.4133 279.674 28.248V47H267.514ZM325.229 47.832C319.767 47.832 315.309 46.168 311.853 42.84C308.397 39.512 306.669 35.1813 306.669 29.848V29.72C306.669 24.6 308.311 20.312 311.597 16.856C314.882 13.3573 319.063 11.608 324.141 11.608C329.815 11.608 334.146 13.4 337.132 16.984C340.119 20.568 341.613 25.0907 341.613 30.552C341.613 31.6613 341.591 32.4933 341.549 33.048H318.381C319.362 36.8453 321.858 38.744 325.869 38.744C328.599 38.744 331.159 37.5707 333.549 35.224L340.269 40.792C336.557 45.4853 331.543 47.832 325.229 47.832ZM318.189 26.84H330.221C330.007 24.92 329.367 23.4053 328.301 22.296C327.234 21.144 325.869 20.568 324.205 20.568C322.626 20.568 321.303 21.144 320.237 22.296C319.213 23.4053 318.53 24.92 318.189 26.84ZM365.281 47V2.2H401.312V12.76H377.569V19.544H399.073V29.336H377.569V36.44H401.633V47H365.281ZM417.839 47.256L404.015 12.376H416.815L423.471 32.6L430.127 12.376H442.735L428.911 47.256H417.839ZM461.729 47.832C456.267 47.832 451.809 46.168 448.353 42.84C444.897 39.512 443.169 35.1813 443.169 29.848V29.72C443.169 24.6 444.811 20.312 448.097 16.856C451.382 13.3573 455.563 11.608 460.641 11.608C466.315 11.608 470.646 13.4 473.632 16.984C476.619 20.568 478.113 25.0907 478.113 30.552C478.113 31.6613 478.091 32.4933 478.049 33.048H454.881C455.862 36.8453 458.358 38.744 462.369 38.744C465.099 38.744 467.659 37.5707 470.049 35.224L476.769 40.792C473.057 45.4853 468.043 47.832 461.729 47.832ZM454.689 26.84H466.721C466.507 24.92 465.867 23.4053 464.801 22.296C463.734 21.144 462.369 20.568 460.705 20.568C459.126 20.568 457.803 21.144 456.737 22.296C455.713 23.4053 455.03 24.92 454.689 26.84ZM483.327 47V12.376H495.487V17.24C498.388 13.4853 501.844 11.608 505.855 11.608C509.524 11.608 512.404 12.76 514.495 15.064C516.585 17.3253 517.631 20.4187 517.631 24.344V47H505.471V28.248C505.471 26.4133 505.023 24.984 504.127 23.96C503.273 22.936 502.1 22.424 500.607 22.424C499.071 22.424 497.833 22.936 496.895 23.96C495.956 24.984 495.487 26.4133 495.487 28.248V47H483.327ZM537.649 47.704C529.884 47.704 526.001 43.8853 526.001 36.248V22.168H521.905V12.376H526.001V3.608H538.161V12.376H546.225V22.168H538.161V33.88C538.161 36.184 539.27 37.336 541.489 37.336C542.94 37.336 544.476 36.952 546.097 36.184V45.72C543.75 47.0427 540.934 47.704 537.649 47.704Z" fill="#00002E"/>
</svg>
